<svg width="18" height="20" viewBox="0 0 18 20" fill="none" xmlns="http://www.w3.org/2000/svg">
<path d="M9.535 5.939L9.392 12.439H8.404L8.261 5.939H9.535ZM8.95 15.078C8.72467 15.078 8.534 15 8.378 14.844C8.222 14.688 8.144 14.4973 8.144 14.272C8.144 14.0467 8.222 13.856 8.378 13.7C8.534 13.544 8.72467 13.466 8.95 13.466C9.16667 13.466 9.34867 13.544 9.496 13.7C9.652 13.856 9.73 14.0467 9.73 14.272C9.73 14.4973 9.652 14.688 9.496 14.844C9.34867 15 9.16667 15.078 8.95 15.078Z" fill="white"/>
<circle cx="9" cy="10" r="8.5" stroke="white"/>
</svg>
